<svg width="64" height="64" viewBox="0 0 64 64" fill="none" xmlns="http://www.w3.org/2000/svg">
<path d="M15.1846 11.8251L15.8649 13.8744H18.0665L16.2853 15.141L16.9657 17.1903L15.1846 15.9238L13.4035 17.1903L14.0838 15.141L12.3027 13.8744H14.5042L15.1846 11.8251Z" fill="white"/>
<path d="M47.8675 3L48.6612 5.39921H51.2297L49.1517 6.88201L49.9454 9.28122L47.8675 7.79843L45.7895 9.28122L46.5832 6.88201L44.5052 5.39921H47.0737L47.8675 3Z" fill="white"/>
<path d="M49.094 15.442L49.6123 17.0414H51.2897L49.9327 18.03L50.451 19.6294L49.094 18.6409L47.7369 19.6294L48.2553 18.03L46.8982 17.0414H48.5756L49.094 15.442Z" fill="white"/>
<path d="M27.6948 47.146C25.41 52.192 25.6382 54.7329 30.5208 58.4101C28.6909 56.4531 29.0982 53.7124 30.8633 50.6714C31.6266 51.8508 31.72 52.7811 31.1202 55.0567C32.7393 52.1256 33.1341 50.6239 32.0622 48.4358C35.1165 52.0525 36.5167 54.1172 33.8606 58.4101C40.2014 52.8973 41.024 49.306 35.6023 42.4237C36.8755 44.6242 35.9987 45.7758 35.1451 47.49C34.9489 43.6609 33.8006 42.2498 31.1202 40.1812C31.8247 43.0715 31.1746 45.0861 28.3799 49.2957C29.1149 46.94 28.7773 45.8742 27.6948 44.1365C28.0914 45.8626 28.0902 46.5207 27.6948 47.146Z" fill="white"/>
<path d="M11.0742 60.9973L11.0875 60.9419M11.0875 60.9419L23.0292 11.3188M11.0875 60.9419H20.3201M11.0875 60.9419H11M23.0292 11.3188L23.0487 11.2378M23.0292 11.3188H41.5343M23.0292 11.3188H22.9765M23.0487 11.2378L23.0507 11.2295M23.0487 11.2378V11.2464M23.0487 11.2378V6.3275M53.93 60.8872L41.5343 11.3188M41.5343 11.3188L41.5206 11.264M41.5343 11.3188H41.5906M54 60.9419H20.3201M20.3201 60.9419L20.3085 61M20.3201 60.9419L25.2145 36.5501M41.5185 11.2464V6.39984M41.5185 6.39984V6.3275M41.5185 6.39984H41.5906M41.5185 6.39984H36.9732M22.9765 6.25516H27.8826M27.8104 6.3275V8.71462M27.8104 8.71462V8.78696M27.8104 8.71462H27.7383M27.8104 8.71462H29.8305M36.901 8.78696V6.3275M29.8305 8.71462H29.9027M29.8305 8.71462V8.78696M29.8305 8.71462V6.3275M36.9732 8.8593H34.6644M34.7366 8.78696V6.3275M29.7584 6.25516H34.8087M43.8285 60.8831L39.211 36.5779M25.2131 36.6367C26.4396 31.4284 37.406 30.4881 39.2097 36.6367M15.1846 11.8251L15.8649 13.8744H18.0665L16.2853 15.141L16.9657 17.1903L15.1846 15.9238L13.4035 17.1903L14.0838 15.141L12.3027 13.8744H14.5042L15.1846 11.8251ZM47.8675 3L48.6612 5.39921H51.2297L49.1517 6.88201L49.9454 9.28122L47.8675 7.79843L45.7895 9.28122L46.5832 6.88201L44.5052 5.39921H47.0737L47.8675 3ZM49.094 15.442L49.6123 17.0414H51.2897L49.9327 18.03L50.451 19.6294L49.094 18.6409L47.7369 19.6294L48.2553 18.03L46.8982 17.0414H48.5756L49.094 15.442ZM30.5208 58.4101C25.6382 54.7329 25.41 52.192 27.6948 47.146C28.0902 46.5207 28.0914 45.8626 27.6948 44.1365C28.7773 45.8742 29.1149 46.94 28.3799 49.2957C31.1746 45.0861 31.8247 43.0715 31.1202 40.1812C33.8006 42.2498 34.9489 43.6609 35.1451 47.49C35.9987 45.7758 36.8755 44.6242 35.6023 42.4237C41.024 49.306 40.2014 52.8973 33.8606 58.4101C36.5167 54.1172 35.1165 52.0525 32.0622 48.4358C33.1341 50.6239 32.7393 52.1256 31.1202 55.0567C31.72 52.7811 31.6266 51.8508 30.8633 50.6714C29.0982 53.7124 28.6909 56.4531 30.5208 58.4101Z" stroke="white"/>
</svg>
